<?xml version="1.0" encoding="UTF-8"?>
<svg width="822px" height="312px" viewBox="0 0 822 312" version="1.1" xmlns="http://www.w3.org/2000/svg" xmlns:xlink="http://www.w3.org/1999/xlink">
    <title>beige</title>
    <g id="Page-1" stroke="none" stroke-width="1" fill="none" fill-rule="evenodd">
        <g id="Frame-2-Copy" transform="translate(-140, -397)" fill="#DED8C6">
            <g id="beige" transform="translate(137, 313.5)">
                <path d="M118.668,177.48 C140.244,177.48 159.326,184.846 175.914,199.578 C192.502,214.31 200.796,234.9 200.796,261.348 C200.796,288.028 192.734,309.72 176.61,326.424 C160.486,343.128 141.172,351.48 118.668,351.48 C101.5,351.48 87.464,346.376 76.56,336.168 L76.56,339.3 C76.56,345.332 73.544,348.348 67.512,348.348 L14.964,348 C9.628,348 6.96,345.796 6.96,341.388 L6.96,339.996 C6.96,337.212 9.28,332.978 13.92,327.294 C18.56,321.61 20.88,315.752 20.88,309.72 L20.88,151.38 C20.88,145.348 18.038,139.722 12.354,134.502 C6.67,129.282 3.828,125.28 3.828,122.496 L3.828,121.104 C3.828,117.392 6.96,114.144 13.224,111.36 L66.816,86.652 C71.224,84.332 75.052,83.868 78.3,85.26 C81.548,86.652 83.172,89.784 83.172,94.656 L83.172,187.92 C92.22,180.96 104.052,177.48 118.668,177.48 Z M113.1,334.428 C130.732,334.428 139.548,319.812 139.548,290.58 C139.548,276.66 138.446,262.74 136.242,248.82 C134.038,234.9 130.094,222.372 124.41,211.236 C118.726,200.1 111.94,194.532 104.052,194.532 C97.788,194.532 92.742,197.258 88.914,202.71 C85.086,208.162 83.172,215.644 83.172,225.156 L83.172,292.668 C83.172,303.34 86.246,312.968 92.394,321.552 C98.542,330.136 105.444,334.428 113.1,334.428 Z" id="Shape" fill-rule="nonzero"></path>
                <path d="M355.52,293.016 C358.072,290.464 360.914,289.71 364.046,290.754 C367.178,291.798 368.628,294.176 368.396,297.888 C368.164,303.224 366.598,308.792 363.698,314.592 C360.798,320.392 356.68,326.134 351.344,331.818 C346.008,337.502 338.642,342.2 329.246,345.912 C319.85,349.624 309.236,351.48 297.404,351.48 C271.42,351.48 250.25,343.36 233.894,327.12 C217.538,310.88 209.36,289.652 209.36,263.436 C209.36,238.148 217.712,217.558 234.416,201.666 C251.12,185.774 271.536,177.712 295.664,177.48 C316.312,177.248 333.016,181.772 345.776,191.052 C358.536,200.332 364.916,212.628 364.916,227.94 C364.916,240.004 359.754,250.676 349.43,259.956 C339.106,269.236 325.708,275.152 309.236,277.704 C297.636,279.792 286.036,280.604 274.436,280.14 C284.18,298.932 298.796,308.328 318.284,308.328 C335.452,308.328 347.864,303.224 355.52,293.016 Z M288.356,195.924 C281.164,195.924 275.422,199.52 271.13,206.712 C266.838,213.904 264.692,223.3 264.692,234.9 C264.692,244.412 265.736,253.344 267.824,261.696 C274.32,261.928 280.12,261.696 285.224,261 C301,258.216 308.888,245.688 308.888,223.416 C308.656,215.76 306.626,209.264 302.798,203.928 C298.97,198.592 294.156,195.924 288.356,195.924 Z" id="Shape" fill-rule="nonzero"></path>
                <path d="M424.688,160.428 C412.856,160.428 403.228,157.122 395.804,150.51 C388.38,143.898 384.668,135.604 384.668,125.628 C384.668,115.652 388.38,107.358 395.804,100.746 C403.228,94.134 412.856,90.828 424.688,90.828 C436.288,90.828 445.8,94.134 453.224,100.746 C460.648,107.358 464.36,115.652 464.36,125.628 C464.36,135.604 460.648,143.898 453.224,150.51 C445.8,157.122 436.288,160.428 424.688,160.428 Z M387.452,348 C381.884,348 379.1,345.796 379.1,341.388 L379.1,339.996 C379.1,337.212 381.42,332.92 386.06,327.12 C390.7,321.32 393.02,315.52 393.02,309.72 L393.02,243.6 C393.02,237.568 390.7,231.71 386.06,226.026 C381.42,220.342 379.1,216.456 379.1,214.368 L379.1,212.976 C379.1,210.192 381.768,207.524 387.104,204.972 L439.652,179.22 C444.524,177.132 448.352,176.9 451.136,178.524 C453.92,180.148 455.312,182.816 455.312,186.528 L455.312,309.72 C455.312,315.52 457.922,321.32 463.142,327.12 C468.362,332.92 470.972,337.212 470.972,339.996 L470.972,341.388 C470.972,345.796 468.072,348 462.272,348 L387.452,348 Z" id="Shape" fill-rule="nonzero"></path>
                <path d="M632.308,180.96 C643.212,180.96 650.288,181.83 653.536,183.57 C656.784,185.31 658.176,188.268 657.712,192.444 C657.48,195.692 656.378,198.302 654.406,200.274 C652.434,202.246 650.462,203.522 648.49,204.102 C646.518,204.682 643.618,205.378 639.79,206.19 C635.962,207.002 633.236,207.64 631.612,208.104 C642.98,221.096 648.664,235.48 648.664,251.256 C648.664,278.4 636.136,298.352 611.08,311.112 C625.928,314.36 636.484,319.058 642.748,325.206 C649.012,331.354 652.144,339.068 652.144,348.348 C652.144,362.036 643.444,373.23 626.044,381.93 C608.644,390.63 587.068,394.98 561.316,394.98 C536.028,394.98 516.018,391.036 501.286,383.148 C486.554,375.26 479.188,364.008 479.188,349.392 C479.188,343.36 481.276,338.024 485.452,333.384 C489.628,328.744 495.544,326.424 503.2,326.424 C510.16,326.424 516.134,329.092 521.122,334.428 C526.11,339.764 529.822,345.68 532.258,352.176 C534.694,358.672 538.406,364.646 543.394,370.098 C548.382,375.55 554.472,378.276 561.664,378.276 C570.712,378.508 577.788,375.898 582.892,370.446 C587.996,364.994 590.548,357.86 590.548,349.044 C590.548,333.036 585.676,323.64 575.932,320.856 C570.828,321.32 566.652,321.552 563.404,321.552 C538.812,321.552 518.57,315.056 502.678,302.064 C486.786,289.072 478.84,272.252 478.84,251.604 C478.84,229.564 486.786,211.7 502.678,198.012 C518.57,184.324 539.044,177.48 564.1,177.48 C570.596,177.48 580.804,178.06 594.724,179.22 C608.644,180.38 621.172,180.96 632.308,180.96 Z M536.956,223.764 C536.956,242.092 540.552,260.072 547.744,277.704 C554.936,295.336 563.056,304.152 572.104,304.152 C577.904,304.152 582.486,301.542 585.85,296.322 C589.214,291.102 590.896,283.968 590.896,274.92 C590.896,258.448 587.3,240.932 580.108,222.372 C572.916,203.812 564.564,194.532 555.052,194.532 C549.484,194.532 545.076,197.084 541.828,202.188 C538.58,207.292 536.956,214.484 536.956,223.764 Z" id="Shape" fill-rule="nonzero"></path>
                <path d="M811.392,293.016 C813.944,290.464 816.786,289.71 819.918,290.754 C823.05,291.798 824.5,294.176 824.268,297.888 C824.036,303.224 822.47,308.792 819.57,314.592 C816.67,320.392 812.552,326.134 807.216,331.818 C801.88,337.502 794.514,342.2 785.118,345.912 C775.722,349.624 765.108,351.48 753.276,351.48 C727.292,351.48 706.122,343.36 689.766,327.12 C673.41,310.88 665.232,289.652 665.232,263.436 C665.232,238.148 673.584,217.558 690.288,201.666 C706.992,185.774 727.408,177.712 751.536,177.48 C772.184,177.248 788.888,181.772 801.648,191.052 C814.408,200.332 820.788,212.628 820.788,227.94 C820.788,240.004 815.626,250.676 805.302,259.956 C794.978,269.236 781.58,275.152 765.108,277.704 C753.508,279.792 741.908,280.604 730.308,280.14 C740.052,298.932 754.668,308.328 774.156,308.328 C791.324,308.328 803.736,303.224 811.392,293.016 Z M744.228,195.924 C737.036,195.924 731.294,199.52 727.002,206.712 C722.71,213.904 720.564,223.3 720.564,234.9 C720.564,244.412 721.608,253.344 723.696,261.696 C730.192,261.928 735.992,261.696 741.096,261 C756.872,258.216 764.76,245.688 764.76,223.416 C764.528,215.76 762.498,209.264 758.67,203.928 C754.842,198.592 750.028,195.924 744.228,195.924 Z" id="Shape" fill-rule="nonzero"></path>
            </g>
        </g>
    </g>
</svg>