<?xml version="1.0" encoding="UTF-8"?>
<svg width="812px" height="312px" viewBox="0 0 812 312" version="1.1" xmlns="http://www.w3.org/2000/svg" xmlns:xlink="http://www.w3.org/1999/xlink">
    <title>beige</title>
    <g id="Page-1" stroke="none" stroke-width="1" fill="none" fill-rule="evenodd">
        <g id="Frame-2-Copy" transform="translate(-145, -397)" fill="#DED8C6">
            <g id="beige" transform="translate(141.5, 313.5)">
                <path d="M118.668,177.48 C140.244,177.48 159.326,184.846 175.914,199.578 C192.502,214.31 200.796,234.9 200.796,261.348 C200.796,288.028 192.734,309.72 176.61,326.424 C160.486,343.128 141.172,351.48 118.668,351.48 C101.5,351.48 87.464,346.376 76.56,336.168 L76.56,339.3 C76.56,345.332 73.544,348.348 67.512,348.348 L14.964,348 C9.628,348 6.96,345.796 6.96,341.388 L6.96,339.996 C6.96,337.212 9.28,332.978 13.92,327.294 C18.56,321.61 20.88,315.752 20.88,309.72 L20.88,151.38 C20.88,145.348 18.038,139.722 12.354,134.502 C6.67,129.282 3.828,125.28 3.828,122.496 L3.828,121.104 C3.828,117.392 6.96,114.144 13.224,111.36 L66.816,86.652 C71.224,84.332 75.052,83.868 78.3,85.26 C81.548,86.652 83.172,89.784 83.172,94.656 L83.172,187.92 C92.22,180.96 104.052,177.48 118.668,177.48 Z M113.1,334.428 C130.732,334.428 139.548,319.812 139.548,290.58 C139.548,276.66 138.446,262.74 136.242,248.82 C134.038,234.9 130.094,222.372 124.41,211.236 C118.726,200.1 111.94,194.532 104.052,194.532 C97.788,194.532 92.742,197.258 88.914,202.71 C85.086,208.162 83.172,215.644 83.172,225.156 L83.172,292.668 C83.172,303.34 86.246,312.968 92.394,321.552 C98.542,330.136 105.444,334.428 113.1,334.428 Z" id="Shape" fill-rule="nonzero"></path>
                <path d="M355.62,293.016 C358.172,290.464 361.014,289.71 364.146,290.754 C367.278,291.798 368.728,294.176 368.496,297.888 C368.264,303.224 366.698,308.792 363.798,314.592 C360.898,320.392 356.78,326.134 351.444,331.818 C346.108,337.502 338.742,342.2 329.346,345.912 C319.95,349.624 309.336,351.48 297.504,351.48 C271.52,351.48 250.35,343.36 233.994,327.12 C217.638,310.88 209.46,289.652 209.46,263.436 C209.46,238.148 217.812,217.558 234.516,201.666 C251.22,185.774 271.636,177.712 295.764,177.48 C316.412,177.248 333.116,181.772 345.876,191.052 C358.636,200.332 365.016,212.628 365.016,227.94 C365.016,240.004 359.854,250.676 349.53,259.956 C339.206,269.236 325.808,275.152 309.336,277.704 C297.736,279.792 286.136,280.604 274.536,280.14 C284.28,298.932 298.896,308.328 318.384,308.328 C335.552,308.328 347.964,303.224 355.62,293.016 Z M288.456,195.924 C281.264,195.924 275.522,199.52 271.23,206.712 C266.938,213.904 264.792,223.3 264.792,234.9 C264.792,244.412 265.836,253.344 267.924,261.696 C274.42,261.928 280.22,261.696 285.324,261 C301.1,258.216 308.988,245.688 308.988,223.416 C308.756,215.76 306.726,209.264 302.898,203.928 C299.07,198.592 294.256,195.924 288.456,195.924 Z" id="Shape" fill-rule="nonzero"></path>
                <path d="M424.788,160.428 C412.956,160.428 403.328,157.122 395.904,150.51 C388.48,143.898 384.768,135.604 384.768,125.628 C384.768,115.652 388.48,107.358 395.904,100.746 C403.328,94.134 412.956,90.828 424.788,90.828 C436.388,90.828 445.9,94.134 453.324,100.746 C460.748,107.358 464.46,115.652 464.46,125.628 C464.46,135.604 460.748,143.898 453.324,150.51 C445.9,157.122 436.388,160.428 424.788,160.428 Z M387.552,348 C381.984,348 379.2,345.796 379.2,341.388 L379.2,339.996 C379.2,337.212 381.52,332.92 386.16,327.12 C390.8,321.32 393.12,315.52 393.12,309.72 L393.12,243.6 C393.12,237.568 390.8,231.71 386.16,226.026 C381.52,220.342 379.2,216.456 379.2,214.368 L379.2,212.976 C379.2,210.192 381.868,207.524 387.204,204.972 L439.752,179.22 C444.624,177.132 448.452,176.9 451.236,178.524 C454.02,180.148 455.412,182.816 455.412,186.528 L455.412,309.72 C455.412,315.52 458.022,321.32 463.242,327.12 C468.462,332.92 471.072,337.212 471.072,339.996 L471.072,341.388 C471.072,345.796 468.172,348 462.372,348 L387.552,348 Z" id="Shape" fill-rule="nonzero"></path>
                <path d="M632.408,180.96 C643.312,180.96 650.388,181.83 653.636,183.57 C656.884,185.31 658.276,188.268 657.812,192.444 C657.58,195.692 656.478,198.302 654.506,200.274 C652.534,202.246 650.562,203.522 648.59,204.102 C646.618,204.682 643.718,205.378 639.89,206.19 C636.062,207.002 633.336,207.64 631.712,208.104 C643.08,221.096 648.764,235.48 648.764,251.256 C648.764,278.4 636.236,298.352 611.18,311.112 C626.028,314.36 636.584,319.058 642.848,325.206 C649.112,331.354 652.244,339.068 652.244,348.348 C652.244,362.036 643.544,373.23 626.144,381.93 C608.744,390.63 587.168,394.98 561.416,394.98 C536.128,394.98 516.118,391.036 501.386,383.148 C486.654,375.26 479.288,364.008 479.288,349.392 C479.288,343.36 481.376,338.024 485.552,333.384 C489.728,328.744 495.644,326.424 503.3,326.424 C510.26,326.424 516.234,329.092 521.222,334.428 C526.21,339.764 529.922,345.68 532.358,352.176 C534.794,358.672 538.506,364.646 543.494,370.098 C548.482,375.55 554.572,378.276 561.764,378.276 C570.812,378.508 577.888,375.898 582.992,370.446 C588.096,364.994 590.648,357.86 590.648,349.044 C590.648,333.036 585.776,323.64 576.032,320.856 C570.928,321.32 566.752,321.552 563.504,321.552 C538.912,321.552 518.67,315.056 502.778,302.064 C486.886,289.072 478.94,272.252 478.94,251.604 C478.94,229.564 486.886,211.7 502.778,198.012 C518.67,184.324 539.144,177.48 564.2,177.48 C570.696,177.48 580.904,178.06 594.824,179.22 C608.744,180.38 621.272,180.96 632.408,180.96 Z M537.056,223.764 C537.056,242.092 540.652,260.072 547.844,277.704 C555.036,295.336 563.156,304.152 572.204,304.152 C578.004,304.152 582.586,301.542 585.95,296.322 C589.314,291.102 590.996,283.968 590.996,274.92 C590.996,258.448 587.4,240.932 580.208,222.372 C573.016,203.812 564.664,194.532 555.152,194.532 C549.584,194.532 545.176,197.084 541.928,202.188 C538.68,207.292 537.056,214.484 537.056,223.764 Z" id="Shape" fill-rule="nonzero"></path>
                <path d="M802.592,293.016 C805.144,290.464 807.986,289.71 811.118,290.754 C814.25,291.798 815.7,294.176 815.468,297.888 C815.236,303.224 813.67,308.792 810.77,314.592 C807.87,320.392 803.752,326.134 798.416,331.818 C793.08,337.502 785.714,342.2 776.318,345.912 C766.922,349.624 756.308,351.48 744.476,351.48 C718.492,351.48 697.322,343.36 680.966,327.12 C664.61,310.88 656.432,289.652 656.432,263.436 C656.432,238.148 664.784,217.558 681.488,201.666 C698.192,185.774 718.608,177.712 742.736,177.48 C763.384,177.248 780.088,181.772 792.848,191.052 C805.608,200.332 811.988,212.628 811.988,227.94 C811.988,240.004 806.826,250.676 796.502,259.956 C786.178,269.236 772.78,275.152 756.308,277.704 C744.708,279.792 733.108,280.604 721.508,280.14 C731.252,298.932 745.868,308.328 765.356,308.328 C782.524,308.328 794.936,303.224 802.592,293.016 Z M735.428,195.924 C728.236,195.924 722.494,199.52 718.202,206.712 C713.91,213.904 711.764,223.3 711.764,234.9 C711.764,244.412 712.808,253.344 714.896,261.696 C721.392,261.928 727.192,261.696 732.296,261 C748.072,258.216 755.96,245.688 755.96,223.416 C755.728,215.76 753.698,209.264 749.87,203.928 C746.042,198.592 741.228,195.924 735.428,195.924 Z" id="Shape" fill-rule="nonzero"></path>
            </g>
        </g>
    </g>
</svg>