<?xml version="1.0" encoding="UTF-8"?>
<svg width="1100px" height="1100px" viewBox="0 0 1100 1100" version="1.1" xmlns="http://www.w3.org/2000/svg" xmlns:xlink="http://www.w3.org/1999/xlink">
    <title>Frame 2 Copy 4</title>
    <g id="Frame-2-Copy-4" stroke="none" fill="none" fill-rule="nonzero">
        <path d="M549.945337,294.309745 C596.780152,294.309745 634.709713,256.6536 634.709713,209.65502 C634.709713,162.800083 596.780152,125 549.945337,125 C503.109346,125 465.468133,162.800083 465.468133,209.65502 C465.468133,256.6536 503.109346,294.309745 549.945337,294.309745 Z M549.945337,664.872661 C563.737504,664.872661 569.053115,670.872667 577.816842,697.461475 C590.315855,735.550611 628.530823,893.505731 641.17401,939.786681 C648.070829,964.506355 661.28777,975 680.109848,975 C705.825802,975 721.917399,951.428299 714.876406,925.987464 C712.145925,916.070748 657.265607,687.400526 649.650859,640.115836 C643.471969,601.022959 641.750706,516.007527 641.606532,475.475269 C641.606532,470.300563 647.497075,468.434372 650.657136,472.743684 C679.247746,513.275941 727.949173,588.663123 738.006054,600.44603 C750.219661,614.245247 769.471319,616.8326 785.274567,607.919625 C805.817907,596.710704 810.846347,574.575441 801.939918,559.054265 C798.924031,553.449804 794.613519,547.556879 791.020935,541.949475 L693.038441,397.218115 C662.149872,351.656855 623.361151,330.528864 549.945337,330.528864 C476.530701,330.528864 437.883799,351.656855 406.851645,397.218115 L309.013325,541.949475 C305.27795,547.556879 301.111583,553.449804 298.094548,559.054265 C289.187089,574.575441 294.071826,596.710704 314.616402,607.919625 C330.419945,616.8326 349.815188,614.245247 361.883444,600.44603 C371.94003,588.663123 420.643812,513.564406 449.233833,472.743684 C452.250603,468.575661 458.284731,470.300563 458.284731,475.763734 C458.141145,516.151759 456.417235,601.022959 450.239521,640.115836 C442.625068,687.400526 387.887158,916.070748 385.15756,925.987464 C378.117744,951.428299 394.065166,975 419.781709,975 C438.602316,975 451.675966,964.506355 458.715782,939.786681 C471.502261,893.505731 509.574525,735.550611 522.073538,697.461475 C530.837265,670.872667 536.153171,664.872661 549.945337,664.872661 Z" id="Shape" fill="#DED8C6"></path>
    </g>
</svg>