<?xml version="1.0" encoding="UTF-8"?>
<svg width="1100px" height="1100px" viewBox="0 0 1100 1100" version="1.1" xmlns="http://www.w3.org/2000/svg" xmlns:xlink="http://www.w3.org/1999/xlink">
    <title>Frame 2 Copy 4</title>
    <g id="Frame-2-Copy-4" stroke="none" fill="none" fill-rule="nonzero">
        <path d="M380.939453,785.253906 C365.212891,785.253906 352.902344,781.666016 344.007812,774.490234 C335.113281,767.314453 330.666016,757.410156 330.666016,744.777344 C330.666016,728.277344 335.779297,710.960938 346.005859,692.828125 C356.232422,674.695313 370.949219,657.722656 390.15625,641.910156 C409.363281,626.097656 432.458984,613.25 459.443359,603.367188 C486.427734,593.484375 516.591797,588.542969 549.935547,588.542969 C583.451172,588.542969 613.679688,593.484375 640.621094,603.367188 C667.5625,613.25 690.615234,626.097656 709.779297,641.910156 C728.943359,657.722656 743.660156,674.695313 753.929687,692.828125 C764.199219,710.960938 769.333984,728.277344 769.333984,744.777344 C769.333984,757.410156 764.908203,767.314453 756.056641,774.490234 C747.205078,781.666016 734.916016,785.253906 719.189453,785.253906 L380.939453,785.253906 Z M550.064453,543.425781 C530.728516,543.425781 513.089844,538.291016 497.148438,528.021484 C481.207031,517.751953 468.466797,503.916016 458.927734,486.513672 C449.388672,469.111328 444.619141,449.667969 444.619141,428.183594 C444.619141,407.300781 449.410156,388.265625 458.992188,371.078125 C468.574219,353.890625 481.357422,340.205078 497.341797,330.021484 C513.326172,319.837891 530.900391,314.746094 550.064453,314.746094 C569.314453,314.746094 586.931641,319.794922 602.916016,329.892578 C618.900391,339.990234 631.683594,353.611328 641.265625,370.755859 C650.847656,387.900391 655.638672,406.914062 655.638672,427.796875 C655.638672,449.453125 650.869141,469.003906 641.330078,486.449219 C631.791016,503.894531 619.029297,517.751953 603.044922,528.021484 C587.060547,538.291016 569.400391,543.425781 550.064453,543.425781 Z" id="Shape" fill="#DED8C6"></path>
        <path d="M550,114.938601 C534.367598,114.938601 521.080057,109.461209 510.137376,98.5064255 C499.194694,87.5516421 493.723354,74.1624623 493.723354,58.3388862 C493.723354,42.8630811 499.194694,29.6043154 510.137376,18.5625892 C521.080057,7.52086308 534.367598,2 550,2 C565.632402,2 578.963366,7.52086308 589.992894,18.5625892 C601.022422,29.6043154 606.537186,42.8630811 606.537186,58.3388862 C606.537186,74.1624623 601.022422,87.5516421 589.992894,98.5064255 C578.963366,109.461209 565.632402,114.938601 550,114.938601 Z M701.894837,139.456449 C686.262435,139.456449 672.93147,133.979058 661.901942,123.024274 C650.872414,112.069491 645.35765,98.7672537 645.35765,83.1175631 C645.35765,67.4678724 650.872414,54.122164 661.901942,43.0804379 C672.93147,32.0387117 686.262435,26.5178486 701.894837,26.5178486 C717.353545,26.5178486 730.641086,32.0387117 741.757461,43.0804379 C752.873835,54.122164 758.432023,67.4678724 758.432023,83.1175631 C758.432023,98.7672537 752.873835,112.069491 741.757461,123.024274 C730.641086,133.979058 717.353545,139.456449 701.894837,139.456449 Z M839.199432,209.358401 C823.56703,209.358401 810.279488,203.837538 799.336807,192.795812 C788.394126,181.754085 782.922785,168.408377 782.922785,152.758686 C782.922785,137.282881 788.394126,123.980644 799.336807,112.851975 C810.279488,101.723306 823.56703,96.1589719 839.199432,96.1589719 C854.831833,96.1589719 868.162798,101.723306 879.192326,112.851975 C890.221854,123.980644 895.736618,137.282881 895.736618,152.758686 C895.736618,168.408377 890.221854,181.754085 879.192326,192.795812 C868.162798,203.837538 854.831833,209.358401 839.199432,209.358401 Z M948.105163,318.384579 C932.646455,318.384579 919.358914,312.863716 908.242539,301.82199 C897.126165,290.780263 891.567977,277.434555 891.567977,261.784864 C891.567977,246.135174 897.126165,232.832937 908.242539,221.878153 C919.358914,210.92337 932.646455,205.445978 948.105163,205.445978 C963.563872,205.445978 976.851413,210.92337 987.967788,221.878153 C999.084162,232.832937 1004.64235,246.135174 1004.64235,261.784864 C1004.64235,277.434555 999.084162,290.780263 987.967788,301.82199 C976.851413,312.863716 963.563872,318.384579 948.105163,318.384579 Z M1017.40881,454.276059 C1001.9501,454.276059 988.662561,448.711725 977.546187,437.583056 C966.429812,426.454387 960.871625,413.15215 960.871625,397.676345 C960.871625,382.200539 966.429812,368.898302 977.546187,357.769634 C988.662561,346.640965 1001.9501,341.07663 1017.40881,341.07663 C1032.86752,341.07663 1046.15506,346.640965 1057.27144,357.769634 C1068.38781,368.898302 1073.946,382.200539 1073.946,397.676345 C1073.946,413.15215 1068.38781,426.454387 1057.27144,437.583056 C1046.15506,448.711725 1032.86752,454.276059 1017.40881,454.276059 Z M1043.46281,606.599714 C1028.00411,606.599714 1014.71656,601.03538 1003.60019,589.906711 C992.483815,578.778042 986.925628,565.475805 986.925628,550 C986.925628,534.524195 992.483815,521.221958 1003.60019,510.093289 C1014.71656,498.96462 1028.00411,493.400286 1043.46281,493.400286 C1059.09522,493.400286 1072.42618,498.96462 1083.45571,510.093289 C1094.48524,521.221958 1100,534.524195 1100,550 C1100,565.475805 1094.48524,578.778042 1083.45571,589.906711 C1072.42618,601.03538 1059.09522,606.599714 1043.46281,606.599714 Z M1017.40881,758.662542 C1001.9501,758.662542 988.662561,753.18515 977.546187,742.230366 C966.429812,731.275583 960.871625,717.973346 960.871625,702.323655 C960.871625,686.673965 966.429812,673.328256 977.546187,662.28653 C988.662561,651.244804 1001.9501,645.723941 1017.40881,645.723941 C1032.86752,645.723941 1046.15506,651.244804 1057.27144,662.28653 C1068.38781,673.328256 1073.946,686.673965 1073.946,702.323655 C1073.946,717.973346 1068.38781,731.275583 1057.27144,742.230366 C1046.15506,753.18515 1032.86752,758.662542 1017.40881,758.662542 Z M948.105163,894.81485 C932.646455,894.81485 919.358914,889.293987 908.242539,878.252261 C897.126165,867.210535 891.567977,853.864826 891.567977,838.215136 C891.567977,822.565445 897.126165,809.263208 908.242539,798.308425 C919.358914,787.353641 932.646455,781.876249 948.105163,781.876249 C963.563872,781.876249 976.851413,787.353641 987.967788,798.308425 C999.084162,809.263208 1004.64235,822.565445 1004.64235,838.215136 C1004.64235,853.864826 999.084162,867.210535 987.967788,878.252261 C976.851413,889.293987 963.563872,894.81485 948.105163,894.81485 Z M839.199432,1003.84103 C823.56703,1003.84103 810.279488,998.276694 799.336807,987.148025 C788.394126,976.019356 782.922785,962.717119 782.922785,947.241314 C782.922785,931.765508 788.394126,918.463271 799.336807,907.334603 C810.279488,896.205934 823.56703,890.641599 839.199432,890.641599 C854.831833,890.641599 868.162798,896.205934 879.192326,907.334603 C890.221854,918.463271 895.736618,931.765508 895.736618,947.241314 C895.736618,962.717119 890.221854,976.019356 879.192326,987.148025 C868.162798,998.276694 854.831833,1003.84103 839.199432,1003.84103 Z M701.894837,1073.48215 C686.262435,1073.48215 672.93147,1067.91782 661.901942,1056.78915 C650.872414,1045.66048 645.35765,1032.35824 645.35765,1016.88244 C645.35765,1001.40663 650.872414,988.104395 661.901942,976.975726 C672.93147,965.847057 686.262435,960.282723 701.894837,960.282723 C717.353545,960.282723 730.641086,965.847057 741.757461,976.975726 C752.873835,988.104395 758.432023,1001.40663 758.432023,1016.88244 C758.432023,1032.35824 752.873835,1045.66048 741.757461,1056.78915 C730.641086,1067.91782 717.353545,1073.48215 701.894837,1073.48215 Z M550,1098 C534.367598,1098 521.080057,1092.43567 510.137376,1081.307 C499.194694,1070.17833 493.723354,1056.87609 493.723354,1041.40029 C493.723354,1025.92448 499.194694,1012.66571 510.137376,1001.62399 C521.080057,990.582262 534.367598,985.061399 550,985.061399 C565.632402,985.061399 578.963366,990.582262 589.992894,1001.62399 C601.022422,1012.66571 606.537186,1025.92448 606.537186,1041.40029 C606.537186,1056.87609 601.022422,1070.17833 589.992894,1081.307 C578.963366,1092.43567 565.632402,1098 550,1098 Z M398.365703,1073.48215 C382.733302,1073.48215 369.402337,1067.91782 358.372809,1056.78915 C347.343281,1045.66048 341.828517,1032.35824 341.828517,1016.88244 C341.828517,1001.40663 347.343281,988.104395 358.372809,976.975726 C369.402337,965.847057 382.733302,960.282723 398.365703,960.282723 C413.824412,960.282723 427.111953,965.847057 438.228328,976.975726 C449.344702,988.104395 454.90289,1001.40663 454.90289,1016.88244 C454.90289,1032.35824 449.344702,1045.66048 438.228328,1056.78915 C427.111953,1067.91782 413.824412,1073.48215 398.365703,1073.48215 Z M260.800568,1003.84103 C245.168167,1003.84103 231.880625,998.276694 220.937944,987.148025 C209.995263,976.019356 204.523922,962.717119 204.523922,947.241314 C204.523922,931.765508 209.995263,918.463271 220.937944,907.334603 C231.880625,896.205934 245.168167,890.641599 260.800568,890.641599 C276.259277,890.641599 289.546818,896.205934 300.663193,907.334603 C311.779567,918.463271 317.337755,931.765508 317.337755,947.241314 C317.337755,962.717119 311.779567,976.019356 300.663193,987.148025 C289.546818,998.276694 276.259277,1003.84103 260.800568,1003.84103 Z M151.894837,894.81485 C136.436128,894.81485 123.148587,889.293987 112.032212,878.252261 C100.915838,867.210535 95.3576504,853.864826 95.3576504,838.215136 C95.3576504,822.565445 100.915838,809.263208 112.032212,798.308425 C123.148587,787.353641 136.436128,781.876249 151.894837,781.876249 C167.353545,781.876249 180.641086,787.353641 191.757461,798.308425 C202.873835,809.263208 208.432023,822.565445 208.432023,838.215136 C208.432023,853.864826 202.873835,867.210535 191.757461,878.252261 C180.641086,889.293987 167.353545,894.81485 151.894837,894.81485 Z M82.591189,758.662542 C67.1324807,758.662542 53.8449392,753.18515 42.7285647,742.230366 C31.6121901,731.275583 26.0540028,717.973346 26.0540028,702.323655 C26.0540028,686.673965 31.6121901,673.328256 42.7285647,662.28653 C53.8449392,651.244804 67.1324807,645.723941 82.591189,645.723941 C98.2235907,645.723941 111.554556,651.244804 122.584083,662.28653 C133.613611,673.328256 139.128375,686.673965 139.128375,702.323655 C139.128375,717.973346 133.613611,731.275583 122.584083,742.230366 C111.554556,753.18515 98.2235907,758.662542 82.591189,758.662542 Z M56.5371862,606.599714 C41.0784778,606.599714 27.7909364,601.03538 16.6745618,589.906711 C5.55818727,578.778042 0,565.475805 0,550 C0,534.524195 5.55818727,521.221958 16.6745618,510.093289 C27.7909364,498.96462 41.0784778,493.400286 56.5371862,493.400286 C71.9958945,493.400286 85.283436,498.96462 96.3998105,510.093289 C107.516185,521.221958 113.074372,534.524195 113.074372,550 C113.074372,565.475805 107.516185,578.778042 96.3998105,589.906711 C85.283436,601.03538 71.9958945,606.599714 56.5371862,606.599714 Z M82.591189,454.276059 C67.1324807,454.276059 53.8449392,448.711725 42.7285647,437.583056 C31.6121901,426.454387 26.0540028,413.15215 26.0540028,397.676345 C26.0540028,382.200539 31.6121901,368.898302 42.7285647,357.769634 C53.8449392,346.640965 67.1324807,341.07663 82.591189,341.07663 C98.2235907,341.07663 111.554556,346.640965 122.584083,357.769634 C133.613611,368.898302 139.128375,382.200539 139.128375,397.676345 C139.128375,413.15215 133.613611,426.454387 122.584083,437.583056 C111.554556,448.711725 98.2235907,454.276059 82.591189,454.276059 Z M151.894837,318.384579 C136.436128,318.384579 123.148587,312.863716 112.032212,301.82199 C100.915838,290.780263 95.3576504,277.434555 95.3576504,261.784864 C95.3576504,246.135174 100.915838,232.832937 112.032212,221.878153 C123.148587,210.92337 136.436128,205.445978 151.894837,205.445978 C167.353545,205.445978 180.641086,210.92337 191.757461,221.878153 C202.873835,232.832937 208.432023,246.135174 208.432023,261.784864 C208.432023,277.434555 202.873835,290.780263 191.757461,301.82199 C180.641086,312.863716 167.353545,318.384579 151.894837,318.384579 Z M260.800568,209.358401 C245.168167,209.358401 231.880625,203.837538 220.937944,192.795812 C209.995263,181.754085 204.523922,168.408377 204.523922,152.758686 C204.523922,137.282881 209.995263,123.980644 220.937944,112.851975 C231.880625,101.723306 245.168167,96.1589719 260.800568,96.1589719 C276.259277,96.1589719 289.546818,101.723306 300.663193,112.851975 C311.779567,123.980644 317.337755,137.282881 317.337755,152.758686 C317.337755,168.408377 311.779567,181.754085 300.663193,192.795812 C289.546818,203.837538 276.259277,209.358401 260.800568,209.358401 Z M398.365703,139.456449 C382.733302,139.456449 369.402337,133.979058 358.372809,123.024274 C347.343281,112.069491 341.828517,98.7672537 341.828517,83.1175631 C341.828517,67.4678724 347.343281,54.122164 358.372809,43.0804379 C369.402337,32.0387117 382.733302,26.5178486 398.365703,26.5178486 C413.824412,26.5178486 427.111953,32.0387117 438.228328,43.0804379 C449.344702,54.122164 454.90289,67.4678724 454.90289,83.1175631 C454.90289,98.7672537 449.344702,112.069491 438.228328,123.024274 C427.111953,133.979058 413.824412,139.456449 398.365703,139.456449 Z" id="Shape" fill="#DED8C6"></path>
    </g>
</svg>