<?xml version="1.0" encoding="UTF-8"?>
<svg width="1100px" height="1100px" viewBox="0 0 1100 1100" version="1.1" xmlns="http://www.w3.org/2000/svg" xmlns:xlink="http://www.w3.org/1999/xlink">
    <title>Frame 2 Copy 5</title>
    <g id="Frame-2-Copy-5" stroke="none" fill="none" fill-rule="evenodd" stroke-width="1">
        <g id="iOS-App-icon" transform="translate(30, 30)" fill="#DED8C6">
            <g id="Layer-1" transform="translate(257.6537, 95.4723)">
                <path d="M307.033755,4.05890732 C307.950864,4.21704013 308.866958,4.37507138 309.811489,4.53797763 C356.68563,12.8196886 400.450942,34.5449229 436.01813,66.0120323 C436.890551,66.7717198 437.761958,67.5303917 438.660786,68.3134386 C449.185708,77.6023448 458.902192,87.4010948 467.502505,98.5120323 C467.952426,99.0817979 468.402348,99.6515636 468.865473,100.238595 C497.91438,137.118985 516.48813,180.067735 523.36188,226.480782 C523.480708,227.261798 523.599536,228.042814 523.722426,228.847189 C532.658911,289.886251 515.826958,356.370079 479.690005,406.246407 C479.163911,406.972579 478.637817,407.699767 478.096489,408.448282 C472.758364,415.790235 467.343051,423.074298 461.86477,430.311642 C431.388911,470.777189 409.726645,515.59672 406.269458,566.515079 C405.016176,584.37586 401.08977,595.863595 388.458442,608.819923 C377.760864,617.868126 366.828676,617.20797 353.48438,617.137892 C351.288598,617.145001 349.091801,617.154142 346.89602,617.165314 C340.950551,617.187657 335.006098,617.179453 329.061645,617.163282 C322.82977,617.150079 316.597895,617.162267 310.36602,617.170392 C299.903051,617.179453 289.439067,617.167345 278.976098,617.14297 C266.891176,617.115548 254.80727,617.123673 242.723364,617.15211 C232.334536,617.179453 221.944692,617.179453 211.554848,617.165314 C205.356489,617.157189 199.15813,617.156173 192.958755,617.172423 C187.130083,617.187657 181.301411,617.179453 175.472739,617.148048 C173.337895,617.140939 171.203051,617.14297 169.068208,617.154142 C148.349458,617.253673 148.349458,617.253673 140.471255,611.402657 C139.48102,610.673439 138.491801,609.94422 137.472114,609.192657 C124.202973,596.848751 119.837817,585.808907 119.080161,567.603829 C118.442348,556.276564 117.495786,545.303751 115.08063,534.215157 C114.925239,533.481876 114.769848,532.74961 114.610395,531.993985 C105.650551,490.932267 82.4150827,454.525157 56.9990671,421.734689 C47.8503171,409.925001 39.4297702,397.765939 31.7993796,384.918282 C31.2692234,384.030626 31.2692234,384.030626 30.7289109,383.124689 C12.2211765,351.633204 0.310942106,311.655157 0.108832731,275.004298 C0.0976608561,273.702267 0.0976608561,273.702267 0.0864889811,272.374845 C-0.148120394,235.484298 -0.148120394,235.484298 3.36187961,217.340157 C3.66453586,215.764923 3.66453586,215.764923 3.97328586,214.158204 C11.9520359,174.048126 28.8540671,135.814923 54.1431296,103.590157 C54.7860202,102.751251 55.4289109,101.911329 56.0910984,101.047032 C61.7928171,93.7223448 68.0561765,86.9440636 74.4556296,80.2307823 C74.9370359,79.7260167 75.4174265,79.2212511 75.9140671,78.7012511 C82.4678952,71.8732042 89.3446921,65.7398448 96.7993796,59.9182823 C97.7296921,59.1758604 97.7296921,59.1758604 98.6793015,58.4182042 C133.75188,30.4499229 174.66938,12.2946104 218.67438,4.05890732 C219.55188,3.8897042 220.42938,3.72050107 221.334301,3.54611826 C248.858755,-1.54653018 279.558051,-0.958584866 307.033755,4.05890732 Z M214.61188,46.7151573 C213.172739,47.0411729 213.172739,47.0411729 211.704145,47.3742979 C191.767426,52.0583604 172.69602,59.3251573 154.690005,69.0589073 C154.081645,69.3828917 153.474301,69.7078917 152.847661,70.0420323 C130.496801,82.0426573 108.598911,98.9345323 92.7368796,118.824532 C91.8979734,119.852345 91.0580515,120.880157 90.1937546,121.938439 C66.6820359,151.015782 51.5045359,183.80422 43.9868796,220.387032 C43.8050827,221.221876 43.6222702,222.057735 43.4353952,222.91797 C38.0170359,248.485314 38.4659421,279.186642 43.9868796,304.683907 C44.1615671,305.545157 44.335239,306.406407 44.5150046,307.293048 C48.4515671,326.548282 55.027739,344.262814 64.2993796,361.558907 C64.6416452,362.213985 64.9849265,362.869064 65.3373484,363.544454 C72.3969577,377.015704 81.1750046,389.072189 90.4953952,401.061642 C124.743286,445.168204 154.14563,497.034142 159.602583,553.546564 C159.701098,554.429142 159.798598,555.31172 159.899145,556.22172 C159.973286,556.999689 160.047426,557.777657 160.123598,558.578985 C161.037661,561.40547 162.334614,562.12961 164.846255,563.668282 C167.334536,564.11211 167.334536,564.11211 170.046255,564.029845 C171.079145,564.032892 172.113051,564.035939 173.177426,564.040001 C174.286489,564.026798 175.395551,564.01461 176.53813,564.001407 C177.679692,563.999376 178.821255,563.997345 179.997348,563.995314 C182.407426,563.98922 184.817505,563.975001 187.226567,563.953673 C190.931567,563.922189 194.635551,563.912032 198.340551,563.905939 C200.67852,563.896798 203.017505,563.886642 205.356489,563.874454 C206.471645,563.870392 207.585786,563.866329 208.735473,563.861251 C209.759223,563.85211 210.782973,563.841954 211.837192,563.831798 C212.74313,563.824689 213.649067,563.817579 214.582426,563.81047 C216.638051,563.894767 216.638051,563.894767 217.658755,562.652657 C217.76438,560.02422 217.803989,557.423204 217.800942,554.793751 C217.803989,553.960939 217.807036,553.128126 217.810083,552.269923 C217.819223,549.456642 217.821255,546.64336 217.82227,543.830079 C217.827348,541.822189 217.832426,539.814298 217.837505,537.806407 C217.850708,532.335235 217.857817,526.865079 217.86188,521.394923 C217.864926,517.981407 217.868989,514.567892 217.874067,511.154376 C217.88727,500.488282 217.897426,489.821173 217.901489,479.155079 C217.905551,466.818282 217.923833,454.481485 217.953286,442.143673 C217.974614,432.623204 217.985786,423.102735 217.986801,413.582267 C217.987817,407.888673 217.993911,402.195079 218.012192,396.501485 C218.028442,391.149142 218.030473,385.796798 218.022348,380.444454 C218.021333,378.475157 218.025395,376.504845 218.035551,374.535548 C218.048755,371.857345 218.042661,369.178126 218.031489,366.499923 C218.04063,365.711798 218.048755,364.923673 218.05688,364.112189 C218.070083,361.729532 218.070083,361.729532 217.658755,358.512032 C213.976098,356.057267 210.427505,355.487501 206.170005,354.64047 C183.890239,349.892423 162.928755,340.331329 150.084145,320.671876 C143.304848,307.981642 140.56977,294.45961 144.152895,280.43586 C144.332661,279.730001 144.513442,279.023126 144.699301,278.295939 C146.373051,272.175782 148.861333,267.13422 152.658755,262.027657 C153.156411,261.322814 153.654067,260.618985 154.165942,259.892814 C161.315942,250.725782 172.637114,244.255235 184.14313,242.730782 C199.358208,241.414532 212.016958,244.05922 224.303989,253.755392 C244.090395,271.025079 248.384458,294.955235 250.859536,319.870548 C250.962114,321.93836 250.962114,321.93836 252.190005,322.965157 C253.690083,323.065704 255.194223,323.098204 256.697348,323.100235 C258.059301,323.102267 258.059301,323.102267 259.449692,323.104298 C260.405395,323.100235 261.361098,323.096173 262.346255,323.09211 C263.301958,323.096173 264.257661,323.100235 265.242817,323.104298 C266.150786,323.102267 267.05977,323.101251 267.995161,323.100235 C268.835083,323.09922 269.673989,323.098204 270.538286,323.096173 C272.509614,323.181485 272.509614,323.181485 273.51813,321.949532 C273.772036,320.398673 273.969067,318.838673 274.140708,317.275626 C277.06977,292.041407 282.30227,270.324298 302.209536,252.966251 C313.710473,244.275548 326.36313,241.368829 340.54938,242.730782 C349.117192,244.36086 356.049848,247.538751 362.89313,252.887032 C363.516723,253.333907 364.139301,253.779767 364.781176,254.239845 C374.605317,261.781876 380.245083,274.384767 382.190005,286.402657 C383.520473,303.48547 378.832348,316.44586 367.943833,329.495626 C353.408208,345.140314 333.21352,351.702267 312.873598,356.035939 C311.589848,356.309142 310.307114,356.58336 308.985786,356.865704 C308.005708,357.073907 307.026645,357.28211 306.01813,357.496407 C305.99477,384.227657 305.976489,410.959923 305.965317,437.691173 C305.960239,450.10211 305.95313,462.513048 305.941958,474.923985 C305.931801,485.737345 305.924692,496.549689 305.922661,507.363048 C305.921645,513.092189 305.918598,518.822345 305.910473,524.551485 C305.90438,529.937345 305.901333,535.323204 305.903364,540.709064 C305.903364,542.691564 305.901333,544.675079 305.89727,546.657579 C305.892192,549.352032 305.893208,552.047501 305.896255,554.741954 C305.893208,555.537189 305.890161,556.332423 305.887114,557.152032 C305.571255,560.70672 305.571255,560.70672 307.033755,563.668282 C308.657739,563.789142 310.287817,563.840939 311.91688,563.864298 C312.95688,563.880548 313.997895,563.896798 315.070395,563.914064 C319.845864,563.958751 324.620317,564.000392 329.395786,564.023751 C331.915551,564.041017 334.435317,564.068439 336.955083,564.107032 C340.58188,564.162892 344.206645,564.185235 347.833442,564.199454 C348.958755,564.222814 350.085083,564.246173 351.244926,564.269937 C357.553989,564.269937 357.553989,564.269937 363.060708,561.443048 C365.023911,558.437814 365.715551,556.573126 366.130942,553.031642 C366.271098,551.961173 366.411255,550.890704 366.555473,549.787735 C366.75352,548.08047 366.75352,548.08047 366.95563,546.339689 C367.283676,543.937735 367.617817,541.537814 367.959067,539.138907 C368.127661,537.953673 368.296255,536.769454 368.469926,535.548673 C376.050551,486.236017 404.72977,440.072814 434.498755,401.137814 C442.736489,390.288907 450.625864,379.304923 457.333051,367.436329 C458.33852,365.662032 459.371411,363.903985 460.405317,362.145939 C487.191411,315.484064 491.460083,255.919689 478.34227,204.444767 C469.284926,170.973829 451.876098,139.435626 428.134848,114.143517 C426.078208,111.945704 424.12313,109.696095 422.180239,107.398751 C418.647895,103.349454 414.75602,99.9085167 410.627505,96.4807823 C409.802817,95.7820323 408.97813,95.0822667 408.128051,94.3621886 C371.420317,63.6821886 323.539692,42.8618761 275.172583,42.4109386 C273.845161,42.3957042 273.845161,42.3957042 272.490317,42.3804698 C252.861333,42.2057823 233.846801,42.3205479 214.61188,46.7151573 Z M179.255942,284.434376 C176.787973,288.461329 176.719926,291.930704 177.033755,296.558907 C180.310161,304.750939 185.586333,309.788439 193.283755,313.824532 C196.210786,315.07172 199.175395,316.181798 202.170473,317.252267 C202.914926,317.519376 203.65938,317.786485 204.426176,318.06172 C208.27438,319.368829 211.507114,320.258517 215.627505,319.918282 C216.044926,308.247735 213.318989,294.002579 206.48688,284.371407 C203.490786,281.204689 200.382973,278.478751 195.93352,278.035939 C188.547895,277.843985 184.324926,278.665626 179.255942,284.434376 Z M318.213755,284.569454 C311.525864,293.911173 308.56938,308.511798 309.065005,319.918282 C314.866255,319.367814 319.880395,318.255704 325.315005,316.172657 C326.023911,315.903517 326.731801,315.634376 327.462036,315.356095 C336.38938,311.815626 343.716098,306.645079 347.658755,297.574532 C348.399145,292.914845 348.153364,288.710157 345.94438,284.49836 C343.538364,281.246329 342.096176,280.025548 338.51813,278.277657 C329.987895,277.003048 324.121645,278.059298 318.213755,284.569454 Z M252.190005,359.527657 C252.166645,385.993829 252.148364,412.461017 252.137192,438.927189 C252.132114,451.215235 252.125005,463.503282 252.113833,475.791329 C252.103676,486.498048 252.096567,497.203751 252.094536,507.909454 C252.09352,513.582735 252.090473,519.255001 252.082348,524.927267 C252.076255,530.260314 252.073208,535.592345 252.075239,540.925392 C252.075239,542.888595 252.073208,544.851798 252.069145,546.815001 C252.064067,549.483048 252.065083,552.151095 252.06813,554.819142 C252.065083,555.606251 252.062036,556.394376 252.058989,557.204845 C251.747192,560.73211 251.747192,560.73211 253.20563,563.668282 C254.556411,563.767814 255.913286,563.801329 257.26813,563.80336 C258.084692,563.804376 258.90227,563.805392 259.744223,563.807423 C260.602426,563.80336 261.461645,563.799298 262.346255,563.795235 C263.205473,563.799298 264.063676,563.80336 264.948286,563.807423 C265.765864,563.805392 266.582426,563.804376 267.42438,563.80336 C268.555786,563.801329 268.555786,563.801329 269.709536,563.799298 C271.515317,563.860235 271.515317,563.860235 272.502505,562.652657 C272.602036,560.032345 272.634536,557.439454 272.62438,554.819142 C272.625395,553.98836 272.626411,553.158595 272.627426,552.303439 C272.629458,549.499298 272.623364,546.695157 272.618286,543.891017 C272.61727,541.890235 272.61727,539.888439 272.618286,537.886642 C272.618286,532.435782 272.612192,526.983907 272.605083,521.533048 C272.598989,515.842501 272.598989,510.151954 272.596958,504.461407 C272.593911,493.678517 272.585786,482.89461 272.57563,472.110704 C272.564458,459.837892 272.558364,447.565079 272.553286,435.291251 C272.54313,410.03672 272.524848,384.782189 272.502505,359.527657 C265.79938,359.527657 259.096255,359.527657 252.190005,359.527657 Z" id="Shape" fill-rule="nonzero"></path>
                <path d="M158.529067,705.706485 C159.451255,705.702423 160.373442,705.69836 161.324067,705.695314 C164.427817,705.684142 167.531567,705.680079 170.635317,705.676017 C172.855473,705.669923 175.07563,705.662814 177.295786,705.655704 C183.337739,705.638439 189.378676,705.627267 195.42063,705.619142 C199.193676,705.614064 202.966723,705.60797 206.73977,705.60086 C218.540317,705.581564 230.340864,705.567345 242.141411,705.55922 C243.499301,705.558204 244.857192,705.557189 246.216098,705.556173 C246.889458,705.555157 247.562817,705.555157 248.257505,705.554142 C259.171411,705.546017 270.084301,705.520626 280.998208,705.48711 C292.20563,705.453595 303.412036,705.436329 314.619458,705.432267 C320.911255,705.430235 327.202036,705.421095 333.493833,705.395704 C339.412895,705.371329 345.330942,705.367267 351.250005,705.377423 C353.421411,705.378439 355.593833,705.371329 357.765239,705.358126 C360.73188,705.339845 363.697505,705.346954 366.66313,705.360157 C367.522348,705.348985 368.380551,705.337814 369.265161,705.326642 C376.483208,705.404845 380.760005,707.528517 385.998598,712.648282 C390.320083,718.296173 392.083208,725.241017 391.33063,732.262032 C389.758442,739.598907 386.78063,745.53422 380.360864,749.699298 C371.151176,754.018751 361.118833,753.135157 351.183989,753.084376 C349.067426,753.087423 346.950864,753.093517 344.834301,753.100626 C339.108208,753.114845 333.382114,753.103673 327.655005,753.086407 C321.651645,753.072189 315.64727,753.079298 309.642895,753.08336 C299.561801,753.085392 289.481723,753.072189 279.40063,753.048829 C267.759536,753.021407 256.118442,753.019376 244.477348,753.031564 C233.260786,753.042735 222.044223,753.036642 210.827661,753.021407 C206.062348,753.016329 201.297036,753.016329 196.531723,753.020392 C190.916333,753.02547 185.301958,753.015314 179.686567,752.99297 C177.629926,752.987892 175.574301,752.986876 173.517661,752.991954 C151.320161,753.040704 151.320161,753.040704 142.629458,747.750314 C136.144692,740.883673 135.020395,733.846407 135.115864,724.665157 C135.640942,717.896017 138.097739,713.955392 143.073286,709.473439 C147.906645,705.523673 152.510473,705.70547 158.529067,705.706485 Z" id="Path" fill-rule="nonzero"></path>
                <path d="M162.352895,637.66672 C163.237505,637.663673 164.122114,637.660626 165.03313,637.657579 C168.002817,637.648439 170.972505,637.646407 173.942192,637.645392 C176.068911,637.640314 178.19563,637.635235 180.323364,637.630157 C186.106333,637.616954 191.890317,637.609845 197.673286,637.605782 C201.28688,637.602735 204.900473,637.598673 208.514067,637.593595 C219.82102,637.580392 231.127973,637.570235 242.434926,637.566173 C255.485708,637.56211 268.535473,637.543829 281.586255,637.514376 C291.674458,637.492032 301.762661,637.481876 311.850864,637.48086 C317.875551,637.479845 323.900239,637.473751 329.924926,637.45547 C335.594145,637.43922 341.263364,637.437189 346.932583,637.445314 C349.010551,637.446329 351.08852,637.442267 353.166489,637.43211 C356.009223,637.418907 358.851958,637.425001 361.694692,637.436173 C362.511255,637.427032 363.327817,637.418907 364.168755,637.410782 C371.360395,637.472735 377.496801,639.097735 383.522505,643.07797 C389.728989,649.571876 390.947739,655.445235 390.866489,664.346173 C390.549614,671.365157 388.511255,675.192032 383.650473,680.005079 C378.405786,684.671876 373.915708,684.676954 367.211567,684.669845 C366.292426,684.672892 365.373286,684.675939 364.426723,684.678985 C361.334145,684.688126 358.241567,684.690157 355.150005,684.691173 C352.937973,684.696251 350.725942,684.701329 348.513911,684.706407 C342.495317,684.71961 336.477739,684.72672 330.459145,684.730782 C326.701333,684.733829 322.94352,684.737892 319.185708,684.74297 C307.432895,684.756173 295.681098,684.766329 283.928286,684.770392 C282.589692,684.770392 281.250083,684.771407 279.870864,684.771407 C279.199536,684.771407 278.528208,684.772423 277.837583,684.772423 C267.641723,684.776485 257.445864,684.790704 247.250005,684.813048 C235.41188,684.839454 223.573755,684.853673 211.73563,684.855704 C205.468208,684.85672 199.201801,684.862814 192.93438,684.881095 C187.039692,684.897345 181.14602,684.899376 175.251333,684.891251 C173.087036,684.890235 170.922739,684.894298 168.758442,684.904454 C165.805005,684.917657 162.852583,684.911564 159.899145,684.900392 C158.613364,684.913595 158.613364,684.913595 157.301176,684.925782 C150.869223,684.871954 146.723442,683.415548 141.803755,679.068673 C136.18227,672.687501 135.018364,667.34836 135.107739,659.022267 C135.802426,651.892579 139.044301,646.423439 144.533755,641.871407 C150.410161,637.857657 155.369458,637.658595 162.352895,637.66672 Z" id="Path" fill-rule="nonzero"></path>
                <path d="M193.511255,773.37961 C195.42063,773.360314 195.42063,773.360314 197.368598,773.341017 C198.772192,773.34711 200.17477,773.35422 201.577348,773.361329 C203.061176,773.353204 204.543989,773.345079 206.027817,773.333907 C210.050708,773.311564 214.072583,773.31461 218.095473,773.323751 C221.455161,773.328829 224.813833,773.32172 228.17352,773.313595 C236.098442,773.296329 244.023364,773.300392 251.948286,773.317657 C260.123051,773.334923 268.296801,773.318673 276.471567,773.285157 C283.492583,773.258751 290.513598,773.250626 297.534614,773.259767 C301.727114,773.264845 305.918598,773.262814 310.111098,773.241485 C314.052739,773.223204 317.993364,773.229298 321.935005,773.253673 C323.381255,773.258751 324.826489,773.255704 326.271723,773.242501 C328.247114,773.226251 330.221489,773.244532 332.19688,773.264845 C333.853364,773.26586 333.853364,773.26586 335.54438,773.266876 C339.53477,774.120001 341.077505,775.837423 343.596255,778.980782 C344.889145,787.743595 339.491098,794.821485 334.788755,801.820157 C320.201333,821.373985 299.318051,834.412579 275.259926,838.446642 C252.155473,841.240626 229.627895,835.49422 210.557505,822.061564 C199.00477,812.774689 184.320864,799.320704 181.762505,783.998985 C181.604067,781.83672 181.604067,781.83672 182.11188,777.965157 C185.771176,774.196173 188.331567,773.392814 193.511255,773.37961 Z" id="Path" fill-rule="nonzero"></path>
            </g>
        </g>
    </g>
</svg>